<?xml version="1.0" encoding="UTF-8"?>
<svg width="520px" height="120px" viewBox="0 0 520 120" version="1.1" xmlns="http://www.w3.org/2000/svg" xmlns:xlink="http://www.w3.org/1999/xlink">
    <title>MKZoomLevel-Logotype</title>
    <g id="MKZoomLevel-Logotype" stroke="none" stroke-width="1" fill="none" fill-rule="evenodd">
        <path d="M37.953125,86 L37.953125,51.7578125 L38.234375,51.7578125 L52.015625,86 L58.6953125,86 L72.4765625,51.7578125 L72.7578125,51.7578125 L72.7578125,86 L82.2148438,86 L82.2148438,35.2695312 L69.9101562,35.2695312 L55.4960938,71.6914062 L55.2148438,71.6914062 L40.8007812,35.2695312 L28.4960938,35.2695312 L28.4960938,86 L37.953125,86 Z M101.269531,86 L101.269531,70.4960938 L106.015625,64.8007812 L121.0625,86 L133.753906,86 L113.679688,57.7695312 L132.453125,35.2695312 L120.640625,35.2695312 L101.585938,58.4023438 L101.269531,58.4023438 L101.269531,35.2695312 L90.6523438,35.2695312 L90.6523438,86 L101.269531,86 Z M176.292969,86 L176.292969,77.2109375 L149.925781,77.2109375 L149.925781,76.9648438 L175.589844,42.1601562 L175.589844,35.2695312 L137.726562,35.2695312 L137.726562,44.0234375 L162.898438,44.0234375 L162.898438,44.3046875 L137.128906,79.0742188 L137.128906,86 L176.292969,86 Z M199.355469,86.8085938 C210.746094,86.8085938 218.023438,79.53125 218.023438,67.1210938 C218.023438,54.8867188 210.640625,47.5039062 199.355469,47.5039062 C188.070312,47.5039062 180.6875,54.921875 180.6875,67.1210938 C180.6875,79.4960938 187.964844,86.8085938 199.355469,86.8085938 Z M199.355469,78.96875 C194.292969,78.96875 191.09375,74.7148438 191.09375,67.15625 C191.09375,59.6679688 194.363281,55.34375 199.355469,55.34375 C204.347656,55.34375 207.582031,59.6679688 207.582031,67.15625 C207.582031,74.7148438 204.382812,78.96875 199.355469,78.96875 Z M240.59375,86.8085938 C251.984375,86.8085938 259.261719,79.53125 259.261719,67.1210938 C259.261719,54.8867188 251.878906,47.5039062 240.59375,47.5039062 C229.308594,47.5039062 221.925781,54.921875 221.925781,67.1210938 C221.925781,79.4960938 229.203125,86.8085938 240.59375,86.8085938 Z M240.59375,78.96875 C235.53125,78.96875 232.332031,74.7148438 232.332031,67.15625 C232.332031,59.6679688 235.601562,55.34375 240.59375,55.34375 C245.585938,55.34375 248.820312,59.6679688 248.820312,67.15625 C248.820312,74.7148438 245.621094,78.96875 240.59375,78.96875 Z M274.800781,86 L274.800781,63.2539062 C274.800781,59.0351562 277.4375,56.0820312 281.339844,56.0820312 C285.136719,56.0820312 287.421875,58.4726562 287.421875,62.515625 L287.421875,86 L297.300781,86 L297.300781,63.1132812 C297.300781,58.9296875 299.867188,56.0820312 303.769531,56.0820312 C307.742188,56.0820312 309.921875,58.4726562 309.921875,62.8320312 L309.921875,86 L320.1875,86 L320.1875,60.265625 C320.1875,52.671875 315.230469,47.609375 307.847656,47.609375 C302.328125,47.609375 297.828125,50.5976562 296.140625,55.34375 L295.929688,55.34375 C294.664062,50.421875 290.867188,47.609375 285.417969,47.609375 C280.285156,47.609375 276.242188,50.5976562 274.660156,55.1328125 L274.449219,55.1328125 L274.449219,48.3125 L264.535156,48.3125 L264.535156,86 L274.800781,86 Z M360.371094,86 L360.371094,77.2109375 L338.1875,77.2109375 L338.1875,35.2695312 L327.570312,35.2695312 L327.570312,86 L360.371094,86 Z M382.449219,86.8085938 C391.765625,86.8085938 398.515625,81.8515625 399.640625,74.46875 L390.21875,74.46875 C389.269531,77.3515625 386.386719,79.2148438 382.625,79.2148438 C377.386719,79.2148438 373.976562,75.5234375 373.976562,70.1445312 L373.976562,69.5117188 L399.957031,69.5117188 L399.957031,66.3828125 C399.957031,54.921875 393.03125,47.5039062 382.0625,47.5039062 C370.917969,47.5039062 363.886719,55.3085938 363.886719,67.3320312 C363.886719,79.390625 370.847656,86.8085938 382.449219,86.8085938 Z M390.078125,63.21875 L374.082031,63.21875 C374.433594,58.5078125 377.667969,55.0976562 382.167969,55.0976562 C386.738281,55.0976562 389.867188,58.4023438 390.078125,63.21875 Z M426.21875,86 L439.15625,48.3125 L428.433594,48.3125 L420.628906,76.9296875 L420.417969,76.9296875 L412.578125,48.3125 L401.574219,48.3125 L414.617188,86 L426.21875,86 Z M458.84375,86.8085938 C468.160156,86.8085938 474.910156,81.8515625 476.035156,74.46875 L466.613281,74.46875 C465.664062,77.3515625 462.78125,79.2148438 459.019531,79.2148438 C453.78125,79.2148438 450.371094,75.5234375 450.371094,70.1445312 L450.371094,69.5117188 L476.351562,69.5117188 L476.351562,66.3828125 C476.351562,54.921875 469.425781,47.5039062 458.457031,47.5039062 C447.3125,47.5039062 440.28125,55.3085938 440.28125,67.3320312 C440.28125,79.390625 447.242188,86.8085938 458.84375,86.8085938 Z M466.472656,63.21875 L450.476562,63.21875 C450.828125,58.5078125 454.0625,55.0976562 458.5625,55.0976562 C463.132812,55.0976562 466.261719,58.4023438 466.472656,63.21875 Z M492.136719,86 L492.136719,35.2695312 L481.871094,35.2695312 L481.871094,86 L492.136719,86 Z" id="MKZoomLevel" fill="#2D2D2D" fill-rule="nonzero"></path>
    </g>
</svg>