<?xml version="1.0" encoding="UTF-8"?>
<svg width="120px" height="120px" viewBox="0 0 120 120" version="1.1" xmlns="http://www.w3.org/2000/svg" xmlns:xlink="http://www.w3.org/1999/xlink">
    <title>AppIcon</title>
    <defs>
        <linearGradient x1="50%" y1="0%" x2="50%" y2="100%" id="linearGradient-1">
            <stop stop-color="#64E592" offset="0%"></stop>
            <stop stop-color="#34C759" offset="100%"></stop>
        </linearGradient>
        <linearGradient x1="50%" y1="0%" x2="50%" y2="100%" id="linearGradient-2">
            <stop stop-color="#5CE58A" offset="0%"></stop>
            <stop stop-color="#33CC5A" offset="100%"></stop>
        </linearGradient>
        <path d="M34.0996732,-1.37766761e-15 L85.9003268,1.37766761e-15 C97.7575261,-8.00464555e-16 102.057233,1.23458063 106.392048,3.55286496 C110.726863,5.87114929 114.128851,9.27313733 116.447135,13.6079521 C118.765419,17.942767 120,22.2424739 120,34.0996732 L120,85.9003268 C120,97.7575261 118.765419,102.057233 116.447135,106.392048 C114.128851,110.726863 110.726863,114.128851 106.392048,116.447135 C102.057233,118.765419 97.7575261,120 85.9003268,120 L34.0996732,120 C22.2424739,120 17.942767,118.765419 13.6079521,116.447135 C9.27313733,114.128851 5.87114929,110.726863 3.55286496,106.392048 C1.23458063,102.057233 5.33643037e-16,97.7575261 -9.18445073e-16,85.9003268 L9.18445073e-16,34.0996732 C-5.33643037e-16,22.2424739 1.23458063,17.942767 3.55286496,13.6079521 C5.87114929,9.27313733 9.27313733,5.87114929 13.6079521,3.55286496 C17.942767,1.23458063 22.2424739,8.00464555e-16 34.0996732,-1.37766761e-15 Z" id="path-3"></path>
    </defs>
    <g id="AppIcon" stroke="none" stroke-width="1" fill="none" fill-rule="evenodd">
        <g id="Background">
            <use fill="#34C759" xlink:href="#path-3"></use>
            <use fill="url(#linearGradient-1)" xlink:href="#path-3"></use>
            <use fill="url(#linearGradient-2)" xlink:href="#path-3"></use>
        </g>
        <path d="M78.9719626,64 C87.1962617,64 93.9252336,70.6886258 93.9252336,78.8409676 C93.9252336,81.8425116 93.0280374,84.640247 91.4579439,86.9747813 L91.4579439,86.9747813 L99.0841121,94.5527535 C99.7196262,95.1827072 100,95.9794133 100,96.8131755 C100,98.5918682 98.635514,100 96.8224299,100 C95.9626168,100 95.1214953,99.7035512 94.5046729,99.0921256 L94.5046729,99.0921256 L86.8037383,91.4585692 C84.5233645,92.866701 81.8317757,93.6819352 78.9719626,93.6819352 C70.7476636,93.6819352 64,86.9933093 64,78.8409676 C64,70.6886258 70.7476636,64 78.9719626,64 Z M46.3880807,28.7507331 L46.3880807,83.3978495 L34.43313,90.1544477 C33.2252464,90.8739003 32.2651337,91.2179863 31.2430784,91.2179863 C28.6105115,91.2179863 27,89.6226784 27,86.9638319 L27,86.9638319 L27,43.2961877 C27,40.8875855 27.9601126,39.2297165 30.1281089,38.0097752 L30.1281089,38.0097752 L44.6536837,29.657869 C45.2421398,29.3450635 45.830596,29.0009775 46.3880807,28.7507331 L46.3880807,28.7507331 Z M50.9408728,28 C51.8080713,28.1564027 52.6442985,28.5630499 53.4495542,29.0322581 L53.4495542,29.0322581 L68.5635852,38.2600196 L68.5633613,63.1105318 C63.4160614,66.4879464 60,72.2851709 60,78.8409676 C60,82.6917018 61.1785874,86.2807183 63.1943269,89.2713615 L50.9408728,82.3343109 Z M78.9719626,68.5208441 C73.2336449,68.5208441 68.5420561,73.1713845 68.5420561,78.8409676 C68.5420561,84.5105507 73.2336449,89.1610911 78.9719626,89.1610911 C84.6915888,89.1610911 89.3831776,84.5105507 89.3831776,78.8409676 C89.3831776,73.1713845 84.6915888,68.5208441 78.9719626,68.5208441 Z M78.9719626,72.2264539 C79.8504673,72.2264539 80.6168224,72.8564076 80.6168224,73.7828101 L80.6168224,73.7828101 L80.6168224,77.3031395 L83.8504673,77.3031395 C84.6915888,77.3031395 85.3831776,78.0257334 85.3831776,78.8409676 C85.3831776,79.6562017 84.6915888,80.3787957 83.8504673,80.3787957 L83.8504673,80.3787957 L80.6168224,80.3787957 L80.6168224,83.8991251 C80.6168224,84.8255275 79.8504673,85.4554812 78.9719626,85.4554812 C78.0934579,85.4554812 77.3084112,84.8255275 77.3084112,83.8991251 L77.3084112,83.8991251 L77.3084112,80.3787957 L74.0934579,80.3787957 C73.2523364,80.3787957 72.5420561,79.6562017 72.5420561,78.8409676 C72.5420561,78.0257334 73.2523364,77.3031395 74.0934579,77.3031395 L74.0934579,77.3031395 L77.3084112,77.3031395 L77.3084112,73.7828101 C77.3084112,72.8564076 78.0934579,72.2264539 78.9719626,72.2264539 Z M88.787893,28.969697 C91.3894885,28.969697 93,30.5337243 93,33.1925709 L93,33.1925709 L93.0008025,66.2023904 C89.5266374,62.3971029 84.5173127,60 78.9719626,60 C76.9314316,60 74.96289,60.3245249 73.1163255,60.9242869 L73.1163773,37.2277615 L85.56687,30.0332356 C86.7747536,29.2825024 87.7348663,28.969697 88.787893,28.969697 Z" id="MKZoomLevel" fill="#FFFFFF" fill-rule="nonzero"></path>
    </g>
</svg>